<?xml version="1.0" encoding="utf-8"?>
<!-- Generator: Adobe Illustrator 15.0.0, SVG Export Plug-In . SVG Version: 6.00 Build 0)  -->
<!DOCTYPE svg PUBLIC "-//W3C//DTD SVG 1.1//EN" "http://www.w3.org/Graphics/SVG/1.1/DTD/svg11.dtd">
<svg version="1.1" id="Layer_1" xmlns="http://www.w3.org/2000/svg" xmlns:xlink="http://www.w3.org/1999/xlink" x="0px" y="0px"
	 width="63.36px" height="63px" viewBox="0 0 63.36 63" enable-background="new 0 0 63.36 63" xml:space="preserve">
<path fill="#FFFFFF" d="M53.735,2.002H9.625c-4.059,0-7.361,3.303-7.361,7.362v44.633c0,4.059,3.302,7.36,7.361,7.36h44.111
	c4.059,0,7.361-3.302,7.361-7.36V9.365C61.097,5.305,57.794,2.002,53.735,2.002z M59.097,53.998c0,2.956-2.405,5.36-5.361,5.36
	H9.625c-2.956,0-5.361-2.405-5.361-5.36V9.365c0-2.957,2.405-5.362,5.361-5.362h44.111c2.956,0,5.361,2.406,5.361,5.362V53.998z"/>
<g>
	
		<radialGradient id="SVGID_1_" cx="33.3857" cy="63.0249" r="92.3675" gradientTransform="matrix(1 0 0 0.4959 0 31.7689)" gradientUnits="userSpaceOnUse">
		<stop  offset="0" style="stop-color:#538DCA"/>
		<stop  offset="0.5343" style="stop-color:#4972B1"/>
		<stop  offset="1" style="stop-color:#4060A1"/>
	</radialGradient>
	<path fill="url(#SVGID_1_)" d="M60.097,53.998c0,3.514-2.848,6.36-6.361,6.36H9.625c-3.514,0-6.361-2.847-6.361-6.36V9.365
		c0-3.514,2.848-6.362,6.361-6.362h44.111c3.514,0,6.361,2.849,6.361,6.362V53.998z"/>
	<path fill="#F1F0F0" d="M48.101,15.767c1.697-0.326,5.156,0.587,5.156,0.587l1.175-7.439c0,0-2.285-0.521-7.702-0.588
		c-5.416-0.064-8.549,2.61-9.658,4.635c-1.109,2.022-0.913,3.263-0.913,5.874c0,0.548,0,2.517,0,5.285h-4.83v6.982h4.83
		c0,10.956,0,25.193,0,25.193h9.268c0,0,0-14.429,0-25.193h6.982l0.849-6.982h-7.831c0-2.278,0-3.881,0-4.372
		C45.426,17.137,46.404,16.093,48.101,15.767z"/>
	<path opacity="0.4" fill="#FFFFFF" d="M53.735,3.002H9.625c-3.514,0-6.361,2.849-6.361,6.362v9.548
		c8.114,2.827,18.279,4.51,29.315,4.51c10.235,0,19.723-1.447,27.519-3.913V9.365C60.097,5.851,57.249,3.002,53.735,3.002z"/>
	<path opacity="0.75" fill="none" stroke="#F1F0F0" stroke-width="7" stroke-miterlimit="10" d="M57.863,52.244
		c0,3.237-2.624,5.86-5.861,5.86H11.358c-3.237,0-5.861-2.623-5.861-5.86V11.119c0-3.237,2.624-5.861,5.861-5.861h40.644
		c3.237,0,5.861,2.624,5.861,5.861V52.244z"/>
</g>
</svg>
