<?xml version="1.0" encoding="utf-8"?>
<!-- Generator: Adobe Illustrator 15.0.0, SVG Export Plug-In . SVG Version: 6.00 Build 0)  -->
<!DOCTYPE svg PUBLIC "-//W3C//DTD SVG 1.1//EN" "http://www.w3.org/Graphics/SVG/1.1/DTD/svg11.dtd">
<svg version="1.1" id="Modele_2" xmlns="http://www.w3.org/2000/svg" xmlns:xlink="http://www.w3.org/1999/xlink" x="0px" y="0px"
	 width="152px" height="68px" viewBox="0 0 152 68" enable-background="new 0 0 152 68" xml:space="preserve">
<path fill="#FFFFFF" d="M145.75,58.5c0,2.485-2.015,4.5-4.5,4.5H10.5C8.015,63,6,60.985,6,58.5v-46C6,10.015,8.015,8,10.5,8h130.75
	c2.485,0,4.5,2.015,4.5,4.5V58.5z"/>
<g>
	<path fill="#800000" d="M10.122,49.185V13.186h11.211v12.909c1.028-0.053,1.286-0.463,1.748-1.904l3.651-11.005h11.263
		l-3.549,10.852c-1.13,3.395-2.21,4.37-2.931,5.039c2.983,1.029,5.554,3.343,5.554,6.325v13.783H25.858V36.74
		c0-1.545-1.491-2.264-4.525-2.212v14.656H10.122z"/>
	<path fill="#800000" d="M53.321,49.185V34.018c0-5.865,4.044-10.718,11.932-10.718c7.887,0,11.932,4.853,11.932,10.718v15.167
		H67.072v-13.6c0-2.225-0.556-2.982-1.82-2.982s-1.82,0.758-1.82,2.982v13.6H53.321z"/>
	<path fill="#808080" d="M91.976,13.186c-7.382,0-12.186,4.5-12.186,12.185v23.814h3.438V30.69c0.476,0.03,0.826,0.185,1.265,0.252
		c0.372,0.216,1.062,0.115,1.505,0.26c0.625-0.235,1.558-0.163,2.409-0.173c0.3-0.059,0.563-0.156,0.946-0.129
		c0.301,0.818,0.477,1.759,0.731,2.624c0,0.215,0,0.431,0,0.646c-0.075,0.368-0.156,0.732-0.129,1.204
		c-0.205,1.029-0.432,2.035-0.517,3.184c0.05,0.824,0.052,1.696,0.215,2.409c0.03,0.616-0.072,1.102-0.043,1.719
		c-0.16,0.607-0.215,1.374-0.128,2.107c0.244,0.861,0.4,1.809,0.429,2.883c-0.128,0.274-0.272,0.531-0.516,0.688
		c-0.112,0.306-0.532,0.301-0.559,0.69c0.191,0.182,0.625,0.12,0.99,0.128c0.179-0.063,0.298-0.188,0.43-0.302
		c0.18-0.063,0.439-0.048,0.474-0.257c0.045-0.249-0.02-0.621,0.043-0.947c-0.152-0.83,0.031-1.825,0.258-2.537
		c0.078-0.727-0.03-1.254-0.087-1.936c0.177-0.755,0.293-1.572,0.474-2.322c0.013-0.445,0.206-0.711,0.258-1.119
		c0.055-0.175,0.117-0.341,0.128-0.56c0.115-0.129,0.063-0.425,0.216-0.516c0.231,0.685,0.433,1.401,0.645,2.106
		c0.184,0.735,0.311,1.525,0.473,2.281c0.002,0.548-0.177,0.912-0.172,1.462c0.023,0.552,0.191,0.958,0.259,1.462
		c0.036,0.552,0.102,1.074,0.086,1.678c-0.004,0.371-0.188,0.815-0.043,1.076c0.146,0.179,0.405-0.007,0.603,0.086
		c0.211,0.09,0.284,0.318,0.559,0.344c0.173,0,0.345,0,0.517,0c0.19,0.004,0.381,0.009,0.387-0.172
		c0.022-0.295-0.221-0.325-0.43-0.387c-0.144-0.129-0.292-0.253-0.43-0.387c-0.079-0.137-0.226-0.206-0.258-0.387
		c-0.06-0.056-0.026-0.205-0.085-0.259c-0.018-1.523,0.52-2.49,0.473-4.044c-0.151-0.651-0.104-1.504-0.215-2.193
		c0.187-0.859,0.188-1.905,0.172-2.968c-0.156-1.279-0.575-2.293-0.603-3.7c-0.06-0.213-0.117-0.427-0.128-0.688
		c0.026-0.617,0.212-1.078,0.301-1.635c0.087-0.242,0.1-0.559,0.214-0.775c0.034-0.294,0.075-0.584,0.301-0.688
		c0.287-0.063,0.682,0.076,0.99,0.129c0.631,0.037,1.065,0.004,1.721,0c0.222,0.037,0.402,0.113,0.646,0.129
		c1.001-0.001,1.737-0.27,2.538-0.473c0.048,0.005,0.093,0.006,0.134,0.005v18.494h3.489V25.37
		C104.161,17.686,99.358,13.186,91.976,13.186z M98.086,29.782c-0.327,0.045-0.626,0.119-0.946,0.173
		c-0.507-0.082-0.984-0.193-1.505-0.26c-0.357-0.172-0.758-0.303-1.205-0.386c-0.243,0-0.487,0-0.731,0
		c-0.389-0.156-0.813-0.278-0.946-0.688c-0.023-0.626,0.241-0.966,0.344-1.463c0.035-0.249-0.163-0.268-0.129-0.517
		c-0.043-0.186-0.065-0.393-0.129-0.559c-0.054-0.019-0.088-0.056-0.086-0.129c-0.245-0.185-0.474-0.387-0.946-0.344
		c-0.247,0.067-0.439,0.189-0.602,0.344c-0.05,0.224-0.209,0.336-0.171,0.646c-0.038,0.234-0.204,0.341-0.173,0.645
		c0.042,0.301,0.276,0.411,0.301,0.73c0.042,0.173,0.052,0.379,0.043,0.604c-0.214,0.4-0.668,0.563-1.118,0.731
		c-0.244,0-0.488,0-0.731,0c-0.438,0.092-0.821,0.24-1.204,0.386c-0.488,0.072-0.942,0.177-1.42,0.26
		c-0.251-0.035-0.484-0.091-0.731-0.129c-1.045-0.065-1.775,0.186-2.771,0.172v-5.284c0-5.967,2.731-8.395,8.748-8.395
		s8.696,2.428,8.696,8.395v5.28C99.757,29.977,98.997,29.804,98.086,29.782z"/>
	<g>
		<path fill="#800000" d="M45.658,25.711c-1.855,0-3.551-0.683-4.86-1.805h-0.196v25.278h10.111V23.906h-0.196
			C49.209,25.028,47.513,25.711,45.658,25.711z"/>
		<path fill="#800000" d="M50.714,18.244c0,2.74-2.271,5.056-5.056,5.056c-2.785,0-5.056-2.315-5.056-5.056
			c0-2.743,2.271-5.058,5.056-5.058C48.443,13.187,50.714,15.501,50.714,18.244z"/>
	</g>
	<path fill="#808080" d="M115.521,23.3v-0.003h-8.754v2.922h8.728v0.001c2.715,0.021,5.609,2.554,5.609,6.318
		c0,3.78-2.917,6.319-5.64,6.319c-1.703,0-3.023-0.622-4.413-2.081l-1.295-1.356h-2.989v13.765h2.989v-9.754l0.139,0.115
		c0.876,0.725,2.699,2.233,5.569,2.233c4.958,0,8.696-3.973,8.696-9.241C124.161,27.291,120.451,23.328,115.521,23.3z"/>
	<path fill="#808080" d="M135.521,23.3v-0.003h-8.753v2.922h8.728v0.001c2.714,0.021,5.608,2.554,5.608,6.318
		c0,3.78-2.915,6.319-5.64,6.319c-1.702,0-3.022-0.622-4.413-2.081l-1.294-1.356h-2.989v13.765h2.989v-9.754l0.138,0.115
		c0.876,0.725,2.699,2.233,5.569,2.233c4.958,0,8.698-3.973,8.698-9.241C144.162,27.291,140.451,23.328,135.521,23.3z"/>
</g>
<g>
	<path fill="#004E28" d="M10.371,52.022h0.653v4.206h2.212v0.612h-2.865V52.022z"/>
	<path fill="#004E28" d="M14.492,53.696h-0.531v-1.674h0.531V53.696z"/>
	<path fill="#004E28" d="M17.3,52.022h0.592l2.062,4.818h-0.762l-0.483-1.191h-2.293l-0.477,1.191h-0.762L17.3,52.022z
		 M18.471,55.078l-0.898-2.212h-0.014l-0.912,2.212H18.471z"/>
	<path fill="#004E28" d="M20.576,52.022h1.695c1.231,0,1.545,0.742,1.545,1.348s-0.313,1.348-1.545,1.348h-1.042v2.123h-0.653
		V52.022z M21.229,54.146h0.857c0.518,0,1.035-0.122,1.035-0.775s-0.517-0.776-1.035-0.776h-0.857V54.146z"/>
	<path fill="#004E28" d="M24.608,52.022h1.695c1.231,0,1.545,0.742,1.545,1.348s-0.313,1.348-1.545,1.348h-1.042v2.123h-0.653
		V52.022z M25.262,54.146h0.857c0.518,0,1.035-0.122,1.035-0.775s-0.517-0.776-1.035-0.776h-0.857V54.146z"/>
	<path fill="#004E28" d="M28.64,52.022h0.653v4.206h2.212v0.612H28.64V52.022z"/>
	<path fill="#004E28" d="M32.169,52.022h0.653v4.818h-0.653V52.022z"/>
	<path fill="#004E28" d="M37.414,53.063c-0.272-0.354-0.721-0.551-1.164-0.551c-1.082,0-1.796,0.864-1.796,1.96
		c0,1.014,0.674,1.878,1.796,1.878c0.551,0,0.973-0.245,1.259-0.646l0.551,0.415c-0.143,0.197-0.722,0.844-1.824,0.844
		c-1.531,0-2.477-1.279-2.477-2.49c0-1.497,1.028-2.572,2.511-2.572c0.633,0,1.3,0.238,1.688,0.748L37.414,53.063z"/>
	<path fill="#004E28" d="M40.357,52.022h0.592l2.062,4.818h-0.762l-0.483-1.191h-2.293l-0.477,1.191h-0.762L40.357,52.022z
		 M41.528,55.078l-0.898-2.212h-0.014l-0.912,2.212H41.528z"/>
	<path fill="#004E28" d="M44.015,52.635h-1.552v-0.612h3.757v0.612h-1.552v4.206h-0.653V52.635z"/>
	<path fill="#004E28" d="M46.91,52.022h0.653v4.818H46.91V52.022z"/>
	<path fill="#004E28" d="M48.501,54.432c0-1.429,1.041-2.531,2.511-2.531s2.511,1.103,2.511,2.531c0,1.43-1.041,2.531-2.511,2.531
		S48.501,55.861,48.501,54.432z M52.829,54.432c0-1.055-0.714-1.919-1.817-1.919s-1.817,0.864-1.817,1.919s0.714,1.919,1.817,1.919
		S52.829,55.486,52.829,54.432z"/>
	<path fill="#004E28" d="M54.457,52.022h0.857l2.654,3.961h0.014v-3.961h0.653v4.818h-0.83l-2.682-3.961H55.11v3.961h-0.653V52.022z
		"/>
	<path fill="#004E28" d="M61.651,52.022h1.681c2.035,0,2.532,1.518,2.532,2.409c0,1.231-0.919,2.409-2.641,2.409h-1.572V52.022z
		 M62.304,56.229h0.824c1.103,0,2.042-0.605,2.042-1.797c0-0.612-0.32-1.797-1.885-1.797h-0.98V56.229z"/>
	<path fill="#004E28" d="M66.798,52.022h3.11v0.612h-2.457v1.437h2.287v0.612h-2.287v1.545h2.58v0.612h-3.233V52.022z"/>
	<path fill="#004E28" d="M72.842,52.022h0.653v4.206h2.212v0.612h-2.865V52.022z"/>
	<path fill="#004E28" d="M77.882,52.022h0.592l2.062,4.818h-0.762l-0.483-1.191h-2.293l-0.477,1.191h-0.762L77.882,52.022z
		 M79.053,55.078l-0.898-2.212h-0.014l-0.912,2.212H79.053z"/>
	<path fill="#004E28" d="M83.048,52.022h0.653v2.083h0.055l2.13-2.083h0.912l-2.328,2.226l2.484,2.593h-0.953l-2.246-2.409h-0.055
		v2.409h-0.653V52.022z"/>
	<path fill="#004E28" d="M87.454,52.022h0.653v4.818h-0.653V52.022z"/>
	<path fill="#004E28" d="M89.344,52.022h0.857l2.654,3.961h0.014v-3.961h0.653v4.818h-0.83l-2.682-3.961h-0.014v3.961h-0.653V52.022
		z"/>
	<path fill="#004E28" d="M94.756,52.022h3.11v0.612H95.41v1.437h2.287v0.612H95.41v1.545h2.58v0.612h-3.233V52.022z M96.479,50.771
		h0.871l-1.014,0.979h-0.565L96.479,50.771z"/>
	<path fill="#004E28" d="M99.054,55.834c0.231,0.354,0.633,0.517,1.021,0.517c0.429,0,0.959-0.272,0.959-0.803
		c0-1.109-2.375-0.422-2.375-2.3c0-0.565,0.476-1.348,1.633-1.348c0.524,0,1.027,0.108,1.388,0.551l-0.531,0.483
		c-0.164-0.252-0.483-0.422-0.857-0.422c-0.722,0-0.939,0.436-0.939,0.735c0,1.218,2.375,0.489,2.375,2.225
		c0,0.933-0.749,1.49-1.674,1.49c-0.619,0-1.211-0.211-1.538-0.666L99.054,55.834z"/>
	<path fill="#004E28" d="M102.691,52.022h0.653v4.818h-0.653V52.022z"/>
	<path fill="#004E28" d="M104.282,54.432c0-1.429,1.041-2.531,2.511-2.531s2.511,1.103,2.511,2.531c0,1.43-1.041,2.531-2.511,2.531
		S104.282,55.861,104.282,54.432z M108.61,54.432c0-1.055-0.714-1.919-1.817-1.919s-1.817,0.864-1.817,1.919
		s0.714,1.919,1.817,1.919S108.61,55.486,108.61,54.432z"/>
	<path fill="#004E28" d="M110.238,52.022h0.653v4.206h2.212v0.612h-2.865V52.022z"/>
	<path fill="#004E28" d="M113.468,54.432c0-1.429,1.042-2.531,2.511-2.531s2.511,1.103,2.511,2.531c0,1.43-1.042,2.531-2.511,2.531
		S113.468,55.861,113.468,54.432z M117.796,54.432c0-1.055-0.714-1.919-1.817-1.919s-1.817,0.864-1.817,1.919
		s0.714,1.919,1.817,1.919S117.796,55.486,117.796,54.432z"/>
	<path fill="#004E28" d="M123.528,54.146v2.375c-0.47,0.286-1.239,0.442-1.824,0.442c-1.633,0-2.579-1.163-2.579-2.531
		c0-1.429,1.041-2.531,2.511-2.531c0.885,0,1.422,0.238,1.796,0.626l-0.462,0.497c-0.395-0.382-0.851-0.511-1.334-0.511
		c-1.103,0-1.817,0.864-1.817,1.919c0,1.089,0.81,1.919,1.871,1.919c0.456,0,0.892-0.088,1.185-0.252v-1.34h-1.069v-0.613H123.528z"
		/>
	<path fill="#004E28" d="M124.714,52.022h0.653v4.818h-0.653V52.022z"/>
	<path fill="#004E28" d="M126.604,52.022h3.11v0.612h-2.457v1.437h2.287v0.612h-2.287v1.545h2.58v0.612h-3.233V52.022z"/>
</g>
</svg>
