<?xml version="1.0" encoding="utf-8"?>
<!-- Generator: Adobe Illustrator 15.0.0, SVG Export Plug-In . SVG Version: 6.00 Build 0)  -->
<!DOCTYPE svg PUBLIC "-//W3C//DTD SVG 1.1//EN" "http://www.w3.org/Graphics/SVG/1.1/DTD/svg11.dtd">
<svg version="1.1" id="Layer_1" xmlns="http://www.w3.org/2000/svg" xmlns:xlink="http://www.w3.org/1999/xlink" x="0px" y="0px"
	 width="63.36px" height="63.36px" viewBox="0 0 63.36 63.36" enable-background="new 0 0 63.36 63.36" xml:space="preserve">
<path fill="#FFFFFF" d="M53.776,2.002H9.578C5.543,2.027,2.261,5.328,2.261,9.361v44.635c0,4.06,3.302,7.362,7.361,7.362h44.115
	c4.059,0,7.361-3.303,7.361-7.362V9.361C61.099,5.328,57.816,2.027,53.776,2.002z"/>
<g>
	<path fill="none" d="M53.737,3H9.623C9.609,3,9.597,3.002,9.584,3.002h44.192C53.763,3.002,53.75,3,53.737,3z"/>
	<path fill="#2AA9E0" d="M60.099,53.996V9.361c0-3.5-2.827-6.337-6.322-6.358H9.584C6.088,3.023,3.261,5.861,3.261,9.361v44.635
		c0,3.514,2.848,6.362,6.361,6.362h44.115C57.251,60.358,60.099,57.509,60.099,53.996z M46.784,23.882
		c0.015,0.336,0.022,0.675,0.022,1.015c0,10.367-7.891,22.32-22.32,22.32c-4.43,0-8.553-1.299-12.024-3.524
		c0.613,0.072,1.237,0.109,1.871,0.109c3.675,0,7.058-1.254,9.743-3.357c-3.434-0.063-6.33-2.332-7.328-5.448
		c0.479,0.092,0.971,0.141,1.476,0.141c0.716,0,1.408-0.096,2.066-0.275c-3.589-0.721-6.292-3.891-6.292-7.692
		c0-0.033,0-0.066,0-0.099c1.058,0.587,2.268,0.94,3.553,0.981c-2.104-1.407-3.489-3.808-3.489-6.529
		c0-1.438,0.387-2.785,1.062-3.944c3.869,4.746,9.65,7.869,16.17,8.196c-0.134-0.574-0.203-1.173-0.203-1.788
		c0-4.333,3.512-7.845,7.845-7.845c2.256,0,4.295,0.953,5.726,2.477c1.787-0.352,3.466-1.004,4.982-1.903
		c-0.586,1.832-1.83,3.369-3.449,4.34c1.586-0.189,3.099-0.611,4.505-1.235C49.646,21.395,48.316,22.776,46.784,23.882z"/>
	<path fill="#FFFFFF" d="M49.643,16.717c-1.517,0.899-3.195,1.552-4.982,1.903c-1.431-1.524-3.47-2.477-5.726-2.477
		c-4.333,0-7.845,3.512-7.845,7.845c0,0.615,0.069,1.213,0.203,1.788c-6.52-0.327-12.301-3.45-16.17-8.196
		c-0.675,1.159-1.062,2.506-1.062,3.944c0,2.722,1.385,5.123,3.489,6.529c-1.285-0.041-2.495-0.394-3.553-0.981
		c0,0.033,0,0.065,0,0.099c0,3.801,2.703,6.971,6.292,7.692c-0.658,0.18-1.351,0.275-2.066,0.275c-0.505,0-0.997-0.049-1.476-0.141
		c0.998,3.116,3.895,5.385,7.328,5.448c-2.686,2.104-6.068,3.357-9.743,3.357c-0.634,0-1.258-0.037-1.871-0.109
		c3.472,2.226,7.595,3.524,12.024,3.524c14.43,0,22.32-11.953,22.32-22.32c0-0.34-0.008-0.679-0.022-1.015
		c1.532-1.106,2.862-2.488,3.914-4.061c-1.406,0.624-2.919,1.045-4.505,1.235C47.813,20.086,49.057,18.549,49.643,16.717z"/>
</g>
</svg>
